<?xml version="1.0" encoding="utf-8"?>
<svg viewBox="0 0 209 80.1" xmlns="http://www.w3.org/2000/svg">
  <g transform="matrix(0.207851, 0, 0, 0.108219, 0.342464, -14.001353)" style="">
    <path d="M54.5,856.4c-26.7,0-44.5-17.8-44.5-44.5V633.6c0-26.7,17.8-44.5,44.5-44.5s44.5,17.8,44.5,44.5v178.2C99.1,838.5,81.3,856.4,54.5,856.4z" style="fill: rgb(245, 245, 245);"/>
    <path d="M232.7,856.4c-26.7,0-44.5-17.8-44.5-44.5V544.5c0-26.7,17.8-44.5,44.5-44.5s44.5,17.8,44.5,44.5v267.3C277.3,838.5,259.5,856.4,232.7,856.4z" style="fill: rgb(245, 245, 245);"/>
    <path d="M410.9,856.4c-26.7,0-44.5-17.8-44.5-44.5V455.5c0-26.7,17.8-44.5,44.5-44.5c26.7,0,44.5,17.8,44.5,44.5v356.4C455.5,838.5,437.6,856.4,410.9,856.4z" style="fill: rgb(245, 245, 245);"/>
    <path d="M589.1,856.4c-26.7,0-44.5-17.8-44.5-44.5V366.4c0-26.7,17.8-44.5,44.5-44.5c26.7,0,44.5,17.8,44.5,44.5v445.5C633.6,838.5,615.8,856.4,589.1,856.4z" style="fill: rgb(245, 245, 245);"/>
    <path d="M767.3,856.4c-26.7,0-44.5-17.8-44.5-44.5V277.3c0-26.7,17.8-44.5,44.5-44.5c26.7,0,44.5,17.8,44.5,44.5v534.5C811.8,838.5,794,856.4,767.3,856.4z" style="fill: rgb(245, 245, 245);"/>
    <path d="M945.5,856.4c-26.7,0-44.5-17.8-44.5-44.5V188.2c0-26.7,17.8-44.5,44.5-44.5c26.7,0,44.5,17.8,44.5,44.5v623.6C990,838.5,972.2,856.4,945.5,856.4z" style="fill: rgb(245, 245, 245);"/>
  </g>
</svg>