<?xml version="1.0" encoding="utf-8"?>
<svg viewBox="0 0 209 80.1" xmlns="http://www.w3.org/2000/svg">
  <g transform="matrix(0.213265, 0, 0, 0.193239, -2.132522, -56.5695)" style="">
    <g>
      <path d="M952.3,405.8c-20.8,0-37.7,0-37.7,0v-37.7c0-41.6-33.8-75.4-75.4-75.4H85.4c-41.7,0-75.4,33.8-75.4,75.4v263.8c0,41.6,33.7,75.4,75.4,75.4h753.8c41.6,0,75.4-33.8,75.4-75.4v-37.7c0,0,16.8,0,37.7,0c20.8,0,37.7-16.9,37.7-37.7V443.5C990,422.6,973.1,405.8,952.3,405.8z M876.9,631.9c0,20.8-16.9,37.7-37.7,37.7H85.4c-20.8,0-37.7-16.9-37.7-37.7V368.1c0-20.8,16.8-37.7,37.7-37.7h753.8c20.8,0,37.7,16.8,37.7,37.7V631.9z M85.4,631.9h226.2V368.1H85.4V631.9z M349.2,631.9h226.2V368.1H349.2V631.9z" style="fill: rgb(247, 247, 247);"/>
    </g>
  </g>
</svg>