<?xml version="1.0" encoding="utf-8"?>
<svg viewBox="0 0 500 500" xmlns="http://www.w3.org/2000/svg">
  <g transform="matrix(-0.22238, 0, 0, 0.225424, 361.189819, 148.926285)" style="">
    <g transform="translate(0.000000,511.000000) scale(0.100000,-0.100000)">
      <path d="M489.7,3387.3c-151.8-70-305.9-242.8-350.3-394.6c-51.4-177.5-53.7-5599.5,0-5774.6c42-142.5,165.8-291.9,310.6-378.3l109.8-63.1h3339.2H7238l163.5,67.7c203.2,84.1,441.3,235.8,551.1,354.9c46.7,51.4,485.7,625.8,973.7,1279.6C9568.4-666.4,9827.6-299.8,9858-213.4c56,161.1,56,474,0,635.1c-30.4,86.4-289.6,453-929.4,1307.6c-490.4,653.8-934,1232.9-987.8,1289c-130.8,137.8-387.6,294.2-602.4,364.3l-179.8,60.7H3882.5H606.4L489.7,3387.3z M3252.1,2238.4c44.4-18.7,361.9-315.2,768.2-721.5L4713.8,828l714.5,709.9c686.5,684.2,716.9,709.9,829,733.2c326.9,70.1,628.1-163.5,625.8-483.3c0-72.4-16.3-168.1-35-212.5c-21-46.7-319.9-371.3-719.2-777.6C5484.4,141.5,5447,99.5,5484.4,59.8c21-23.3,326.9-331.6,681.9-686.5c422.6-425,653.8-677.2,679.5-733.2c56-133.1,49-303.6-14-434.3c-100.4-207.8-333.9-319.9-569.7-270.9c-119.1,25.7-142.4,46.7-840.6,740.2l-716.9,714.5l-719.2-714.5c-765.9-763.6-749.6-751.9-980.7-747.2c-140.1,0-303.6,91.1-390,210.2c-88.7,126.1-109.8,368.9-46.7,497.4c21,44.4,350.3,392.3,730.9,775.3l693.5,693.5L3298.8,800c-380.6,380.6-707.5,726.2-728.5,768.2c-53.7,107.4-49,319.9,11.7,443.7C2696.3,2247.8,2985.9,2345.8,3252.1,2238.4z" style="fill: rgb(241, 241, 241);"/>
    </g>
  </g>
</svg>