<?xml version="1.0" encoding="utf-8"?>
<svg viewBox="0 0 500 500" xmlns="http://www.w3.org/2000/svg">
  <g transform="matrix(0.18895, 0, 0, 0.162389, 162.420822, 179.773346)" style="">
    <g>
      <g>
        <path d="M68.8,586.6h862.4c32.5,0,58.8-26.3,58.8-58.8c0-32.5-26.3-58.8-58.8-58.8H68.8C36.3,469,10,495.3,10,527.8C10,560.2,36.3,586.6,68.8,586.6z" style="fill: rgb(247, 247, 247);"/>
        <path d="M498.4,322c80.2,0,145.4-65.2,145.4-145.4c0-80.2-65.2-145.4-145.4-145.4C418.2,31.2,353,96.4,353,176.6C353,256.8,418.2,322,498.4,322z" style="fill: rgb(247, 247, 247);"/>
        <path d="M643.7,823.4c0-80.2-65.2-145.4-145.4-145.4C418.2,678,353,743.2,353,823.4c0,80.1,65.2,145.4,145.4,145.4C578.5,968.8,643.7,903.6,643.7,823.4z" style="fill: rgb(247, 247, 247);"/>
      </g>
    </g>
    <g/>
    <g/>
    <g/>
    <g/>
    <g/>
    <g/>
    <g/>
    <g/>
    <g/>
    <g/>
    <g/>
    <g/>
    <g/>
    <g/>
    <g/>
  </g>
</svg>