<?xml version="1.0" encoding="utf-8"?>
<svg viewBox="0 0 154.1 132.8" xmlns="http://www.w3.org/2000/svg">
  <g transform="matrix(0.155205, 0, 0, 0.160151, -0.158807, -13.650643)" style="">
    <g>
      <path d="M500,700c-54.7,0-99,44.7-99,100c0,55.2,44.3,100,99,100c54.7,0,99-44.8,99-100C599,744.7,554.7,700,500,700z M290,587.9l70,70.7c77.3-78.1,202.7-78.1,280,0l69.9-70.7C594.1,470.8,406,470.8,290,587.9L290,587.9z M150,446.4l70,70.7C374.6,361,625.3,361,780,517.1l70-70.7C656.8,251.2,343.3,251.2,150,446.4L150,446.4z M10,305l70,70.7c231.9-234.3,608-234.3,840,0l70-70.7C719.4,31.7,280.6,31.7,10,305L10,305z" style="fill: rgb(247, 247, 247);"/>
    </g>
  </g>
</svg>